<svg width="40" height="40" viewBox="0 0 40 40" fill="none" xmlns="http://www.w3.org/2000/svg">
<path d="M33.3333 6.6665H6.66659C4.83325 6.6665 3.34992 8.1665 3.34992 9.99984L3.33325 29.9998C3.33325 31.8332 4.83325 33.3332 6.66659 33.3332H33.3333C35.1666 33.3332 36.6666 31.8332 36.6666 29.9998V9.99984C36.6666 8.1665 35.1666 6.6665 33.3333 6.6665ZM32.6666 13.7498L20.8833 21.1165C20.3499 21.4498 19.6499 21.4498 19.1166 21.1165L7.33325 13.7498C7.16613 13.656 7.01978 13.5293 6.90307 13.3773C6.78635 13.2252 6.70169 13.0511 6.65421 12.8655C6.60673 12.6798 6.59742 12.4864 6.62685 12.297C6.65627 12.1076 6.72381 11.9262 6.82539 11.7637C6.92696 11.6012 7.06046 11.4609 7.2178 11.3515C7.37513 11.2421 7.55304 11.1657 7.74074 11.127C7.92845 11.0883 8.12206 11.0881 8.30984 11.1264C8.49763 11.1647 8.67569 11.2407 8.83325 11.3498L19.9999 18.3332L31.1666 11.3498C31.3241 11.2407 31.5022 11.1647 31.69 11.1264C31.8778 11.0881 32.0714 11.0883 32.2591 11.127C32.4468 11.1657 32.6247 11.2421 32.782 11.3515C32.9394 11.4609 33.0729 11.6012 33.1744 11.7637C33.276 11.9262 33.3436 12.1076 33.373 12.297C33.4024 12.4864 33.3931 12.6798 33.3456 12.8655C33.2981 13.0511 33.2135 13.2252 33.0968 13.3773C32.9801 13.5293 32.8337 13.656 32.6666 13.7498Z" fill="#333333"/>
</svg>
