<svg width="46" height="46" viewBox="0 0 46 46" fill="none" xmlns="http://www.w3.org/2000/svg">
<circle cx="23" cy="23" r="23" fill="#4CA9F8"/>
<path fill-rule="evenodd" clip-rule="evenodd" d="M17.42 15.8298C17.2067 15.631 16.9247 15.5229 16.6332 15.528C16.3418 15.5331 16.0637 15.6512 15.8576 15.8573C15.6514 16.0635 15.5334 16.3415 15.5282 16.633C15.5231 16.9244 15.6313 17.2065 15.83 17.4198L21.41 22.9998L15.83 28.5798C15.7195 28.6828 15.6308 28.807 15.5693 28.945C15.5078 29.083 15.4748 29.2319 15.4721 29.383C15.4694 29.534 15.4972 29.6841 15.5538 29.8242C15.6104 29.9642 15.6946 30.0915 15.8014 30.1983C15.9083 30.3052 16.0355 30.3894 16.1756 30.446C16.3157 30.5025 16.4657 30.5303 16.6168 30.5277C16.7678 30.525 16.9168 30.4919 17.0548 30.4304C17.1928 30.369 17.317 30.2803 17.42 30.1698L23 24.5898L28.58 30.1698C28.683 30.2803 28.8072 30.369 28.9452 30.4304C29.0832 30.4919 29.2321 30.525 29.3832 30.5277C29.5343 30.5303 29.6843 30.5025 29.8244 30.446C29.9645 30.3894 30.0917 30.3052 30.1985 30.1983C30.3054 30.0915 30.3896 29.9642 30.4462 29.8242C30.5028 29.6841 30.5305 29.534 30.5279 29.383C30.5252 29.2319 30.4921 29.083 30.4307 28.945C30.3692 28.807 30.2805 28.6828 30.17 28.5798L24.59 22.9998L30.17 17.4198C30.3687 17.2065 30.4769 16.9244 30.4717 16.633C30.4666 16.3415 30.3485 16.0635 30.1424 15.8573C29.9363 15.6512 29.6582 15.5331 29.3668 15.528C29.0753 15.5229 28.7932 15.631 28.58 15.8298L23 21.4098L17.42 15.8298Z" fill="white"/>
</svg>
