<svg width="40" height="40" viewBox="0 0 40 40" fill="none" xmlns="http://www.w3.org/2000/svg">
<circle cx="19.7475" cy="20" r="19.7475" fill="white"/>
<path fill-rule="evenodd" clip-rule="evenodd" d="M11.4538 14.0758C11.4538 13.7616 11.5787 13.4602 11.8009 13.238C12.0231 13.0158 12.3244 12.891 12.6387 12.891H26.8569C27.1712 12.891 27.4725 13.0158 27.6947 13.238C27.9169 13.4602 28.0418 13.7616 28.0418 14.0758C28.0418 14.3901 27.9169 14.6915 27.6947 14.9137C27.4725 15.1359 27.1712 15.2607 26.8569 15.2607H12.6387C12.3244 15.2607 12.0231 15.1359 11.8009 14.9137C11.5787 14.6915 11.4538 14.3901 11.4538 14.0758ZM11.4538 20.0001C11.4538 19.6859 11.5787 19.3845 11.8009 19.1623C12.0231 18.9401 12.3244 18.8153 12.6387 18.8153H19.7478C20.062 18.8153 20.3634 18.9401 20.5856 19.1623C20.8078 19.3845 20.9326 19.6859 20.9326 20.0001C20.9326 20.3144 20.8078 20.6157 20.5856 20.8379C20.3634 21.0601 20.062 21.185 19.7478 21.185H12.6387C12.3244 21.185 12.0231 21.0601 11.8009 20.8379C11.5787 20.6157 11.4538 20.3144 11.4538 20.0001ZM11.4538 25.9244C11.4538 25.6101 11.5787 25.3088 11.8009 25.0866C12.0231 24.8644 12.3244 24.7395 12.6387 24.7395H26.8569C27.1712 24.7395 27.4725 24.8644 27.6947 25.0866C27.9169 25.3088 28.0418 25.6101 28.0418 25.9244C28.0418 26.2386 27.9169 26.54 27.6947 26.7622C27.4725 26.9844 27.1712 27.1092 26.8569 27.1092H12.6387C12.3244 27.1092 12.0231 26.9844 11.8009 26.7622C11.5787 26.54 11.4538 26.2386 11.4538 25.9244Z" fill="#4CA9F8"/>
</svg>
