<svg width="24" height="24" viewBox="0 0 24 24" fill="none" xmlns="http://www.w3.org/2000/svg">
<path d="M15.5559 13.906L15.1009 14.359C15.1009 14.359 14.0179 15.435 11.0629 12.497C8.10788 9.55898 9.19088 8.48298 9.19088 8.48298L9.47688 8.19698C10.1839 7.49498 10.2509 6.36698 9.63388 5.54298L8.37388 3.85998C7.60988 2.83998 6.13488 2.70498 5.25988 3.57498L3.68988 5.13498C3.25688 5.56698 2.96688 6.12498 3.00188 6.74498C3.09188 8.33198 3.80988 11.745 7.81388 15.727C12.0609 19.949 16.0459 20.117 17.6749 19.965C18.1909 19.917 18.6389 19.655 18.9999 19.295L20.4199 17.883C21.3799 16.93 21.1099 15.295 19.8819 14.628L17.9719 13.589C17.1659 13.151 16.1859 13.28 15.5559 13.906Z" fill="#4CA9F8"/>
</svg>
