<svg width="24" height="24" viewBox="0 0 24 24" fill="none" xmlns="http://www.w3.org/2000/svg">
<path d="M11.9998 2.24707C9.62519 2.24702 7.32809 3.09195 5.51952 4.63068C3.71096 6.1694 2.50896 8.30149 2.12863 10.6454C1.74831 12.9893 2.21447 15.3921 3.4437 17.4237C4.67293 19.4554 6.585 20.9833 8.83776 21.7341C9.33776 21.8221 9.52476 21.5221 9.52476 21.2591C9.52476 21.0221 9.51276 20.2341 9.51276 19.3971C6.99976 19.8591 6.34976 18.7841 6.14976 18.2221C5.9279 17.6748 5.57609 17.1898 5.12476 16.8091C4.77476 16.6221 4.27476 16.1591 5.11176 16.1471C5.43164 16.1817 5.73845 16.2929 6.00619 16.4714C6.27393 16.6498 6.49469 16.8902 6.64976 17.1721C6.78649 17.4177 6.97035 17.634 7.19082 17.8085C7.41129 17.983 7.66402 18.1123 7.93454 18.1889C8.20506 18.2656 8.48804 18.2881 8.76727 18.2551C9.04649 18.2222 9.31648 18.1345 9.56176 17.9971C9.60507 17.4884 9.83182 17.0129 10.1998 16.6591C7.97476 16.4091 5.64976 15.5471 5.64976 11.7221C5.63559 10.728 6.00233 9.76628 6.67476 9.03407C6.36907 8.17029 6.40484 7.22236 6.77476 6.38407C6.77476 6.38407 7.61176 6.12207 9.52476 7.40907C11.161 6.95902 12.8885 6.95902 14.5248 7.40907C16.4368 6.10907 17.2748 6.38407 17.2748 6.38407C17.6448 7.22234 17.6805 8.1703 17.3748 9.03407C18.0492 9.76502 18.4163 10.7276 18.3998 11.7221C18.3998 15.5591 16.0618 16.4091 13.8368 16.6591C14.0754 16.901 14.2592 17.1914 14.3757 17.5106C14.4922 17.8298 14.5386 18.1703 14.5118 18.5091C14.5118 19.8471 14.4998 20.9221 14.4998 21.2591C14.4998 21.5221 14.6868 21.8341 15.1868 21.7341C17.4354 20.977 19.3417 19.4455 20.5656 17.4128C21.7894 15.3802 22.2511 12.9788 21.8681 10.6373C21.4852 8.29573 20.2826 6.1665 18.475 4.62965C16.6673 3.0928 14.3724 2.24836 11.9998 2.24707Z" fill="white"/>
</svg>
